<svg xmlns="http://www.w3.org/2000/svg" xmlns:xlink="http://www.w3.org/1999/xlink" width="164.76" height="93.4" viewBox="0 0 164.76 93.4"><defs><style>.a{fill:none;}.b{clip-path:url(#a);}.c{fill:#f8ebdf;}</style><clipPath id="a"><rect class="a" width="164.76" height="93.4"/></clipPath></defs><g class="b"><g class="b"><path class="c" d="M122.36,54.23,119,54.12c-5.9-.2-12.06-2.94-16.33-5.3a40.91,40.91,0,0,1-7.83.75V47a38.89,38.89,0,0,0,7.78-.79l.47-.1.41.23a42.64,42.64,0,0,0,12.55,4.87C114.52,49,112.89,45.63,114,42l.13-.43.37-.25c6.25-4.23,9.83-10.27,9.83-16.58,0-12.27-13.21-22.25-29.45-22.25A37.13,37.13,0,0,0,81,5.17L80,2.82A39.91,39.91,0,0,1,94.85,0c17.63,0,32,11.12,32,24.78,0,7-3.84,13.71-10.55,18.4-1,4.37,3.59,8.71,3.64,8.75Z"/><path class="c" d="M65.4,24.78a17.94,17.94,0,0,0,3.39,10.36c-.61.4-1.21.81-1.78,1.22l-.28.21a20.41,20.41,0,0,1-3.86-11.79,20.12,20.12,0,0,1,2.68-10C68.4,9.76,73.43,5.5,80,2.83l1,2.34a26.87,26.87,0,0,0-12.36,9.54A18,18,0,0,0,65.4,24.78"/><path class="c" d="M94.85,47v2.53c-10.35,0-19.57-3.83-25.41-9.76.7-.49,1.4-1,2.11-1.44C76.94,43.64,85.38,47,94.85,47"/><path class="c" d="M68.87,14.7h-.28c-1,0-2,0-3,.12C50.16,16.1,38.16,26.09,38.16,38.22c0,7,4,13.31,10.38,17.62,1.6,5.32-3.87,10.45-3.87,10.45,6-.2,12.34-3.22,16.16-5.37a39.64,39.64,0,0,0,8,.81c11.59,0,21.68-4.91,26.91-12.17A22.08,22.08,0,0,0,97.39,47a18.77,18.77,0,0,0,2.19-8.73c0-13-13.75-23.52-30.71-23.52M63.23,43.55c-8.38,3.88-14.61-.38-18.64-7.79,8.9,7.62,12.9,7.6,22.14.81l.28-.21c.57-.41,1.17-.83,1.78-1.22,3.56-2.29,7.94-4.07,12.19-3.37,4.83.55,9.62,3.58,11.63,8-5-4.63-11.81-6.08-17.69-3.38a25.62,25.62,0,0,0-3.37,2c-.71.46-1.41,1-2.11,1.44a38.35,38.35,0,0,1-6.21,3.74"/><path class="c" d="M17.6,89.47A9.47,9.47,0,0,1,9.74,93.4a9.93,9.93,0,0,1,0-19.85,9.47,9.47,0,0,1,7.78,3.82l-2.86,2A6.2,6.2,0,0,0,9.74,77,6.54,6.54,0,0,0,9.74,90a6.19,6.19,0,0,0,5-2.61Z"/><path class="c" d="M18.22,86.53A6.6,6.6,0,0,1,25,79.73a6.83,6.83,0,1,1,0,13.65,6.65,6.65,0,0,1-6.82-6.85m10.25,0a3.43,3.43,0,1,0-6.85,0,3.43,3.43,0,1,0,6.85,0"/><path class="c" d="M52.62,76.17H51.18c-1.6,0-2.13,1.2-2.13,2.8v1h2.78v2.75H49.05V93.12H45.6V82.76H38.3V93.12H34.84V82.76H32.35V80h2.49V79c0-3.81,1.91-6.09,5.59-6.09h1.43v3.29H40.43c-1.6,0-2.13,1.2-2.13,2.8v1h7.3V79c0-3.81,1.91-6.09,5.58-6.09h1.44Z"/><path class="c" d="M65.7,87.7h-10a3.32,3.32,0,0,0,3.62,2.81,3.69,3.69,0,0,0,3.28-1.68c.82.45,1.77,1,2.61,1.4C64,92.48,61.52,93.4,59.1,93.4a6.84,6.84,0,0,1,0-13.67,6.47,6.47,0,0,1,6.66,6.8c0,.33,0,.87-.06,1.17m-3.28-2.33a3.12,3.12,0,0,0-3.29-2.77,3.22,3.22,0,0,0-3.45,2.77Z"/><path class="c" d="M80.67,87.7h-10a3.34,3.34,0,0,0,3.62,2.81,3.7,3.7,0,0,0,3.29-1.68c.81.45,1.77,1,2.61,1.4C79,92.48,76.48,93.4,74.07,93.4a6.84,6.84,0,0,1,0-13.67,6.47,6.47,0,0,1,6.65,6.8c0,.33,0,.87,0,1.17m-3.29-2.33A3.11,3.11,0,0,0,74.1,82.6a3.24,3.24,0,0,0-3.46,2.77Z"/><path class="c" d="M99.39,89.47a9.47,9.47,0,0,1-7.86,3.93,9.93,9.93,0,0,1,0-19.85,9.45,9.45,0,0,1,7.78,3.82l-2.86,2A6.2,6.2,0,0,0,91.53,77a6.54,6.54,0,0,0,0,13.06,6.17,6.17,0,0,0,5-2.61Z"/><path class="c" d="M104.25,93.12h-3.42V72.88h3.42V82c.62-1.6,2.78-2.3,4.07-2.3,3.4,0,5.28,2.25,5.28,6.09v7.3h-3.42V86a2.77,2.77,0,0,0-2.78-2.92,2.92,2.92,0,0,0-3.15,3.06Z"/><path class="c" d="M125.56,91.44a5.06,5.06,0,0,1-4.07,1.94,6.83,6.83,0,0,1,0-13.65,5,5,0,0,1,4.07,1.91V80H129V93.12h-3.43ZM122,90.09A3.54,3.54,0,1,0,122,83a3.54,3.54,0,1,0,0,7.07"/><polygon class="c" points="136.79 80.01 139.57 80.01 139.57 82.76 136.79 82.76 136.79 93.12 133.4 93.12 133.4 82.76 131.01 82.76 131.01 80.01 133.4 80.01 133.4 75.02 136.79 75.02 136.79 80.01"/><path class="c" d="M141.23,89.14A2.13,2.13,0,1,1,139,91.27a2.15,2.15,0,0,1,2.19-2.13"/><path class="c" d="M155.27,91.44a5.06,5.06,0,0,1-4.07,1.94,6.83,6.83,0,0,1,0-13.65,5,5,0,0,1,4.07,1.91V80h3.42V93.12h-3.42Zm-3.59-1.35a3.54,3.54,0,1,0,0-7.07,3.54,3.54,0,1,0,0,7.07"/><path class="c" d="M162.6,72.88a2.07,2.07,0,1,1,0,4.13,2.07,2.07,0,1,1,0-4.13m1.68,20.24h-3.4V80h3.4Z"/></g></g></svg>