<?xml version="1.0" encoding="UTF-8"?>
<svg
  id="a"
  xmlns="http://www.w3.org/2000/svg"
  width="1045.19"
  height="803.97"
  viewBox="0 0 1045.19 803.97"
>
  <defs>
    <style>
      .b,
      .c {
        fill: #9a63ff;
      }
      .d {
        fill: #fff;
      }
      .d,
      .e,
      .f,
      .g {
        stroke: #9a63ff;
        stroke-miterlimit: 10;
        stroke-width: 7px;
      }
      .e {
        fill: #999;
      }
      .f {
        fill: #d4d4d4;
      }
      .g {
        fill: none;
      }
      .c {
        font-family: FiraCode-Light, "Fira Code";
        font-size: 120px;
        font-variation-settings: "wght" 300;
        font-weight: 300;
      }

      .t {
        transform-origin: 285.25px 298.16px;
        animation-name: blink;
        animation-duration: 3s;
        animation-delay: 0;
        animation-direction: reverse;
        animation-iteration-count: infinite;
        transform: scaleY(1);
      }

      @keyframes blink {
        0% {
          transform: scaleY(1);
        }
        2.5% {
          transform: scaleY(0);
        }
        5% {
          transform: scaleY(1);
        }
        7.5% {
          transform: scaleY(0);
        }
        10% {
          transform: scaleY(1);
        }
      }
    </style>
  </defs>
  <rect class="g" x="3.5" y="3.5" width="1038.19" height="796.97" />
  <rect class="g" x="3.5" y="3.5" width="1038.19" height="126.07" />
  <g>
    <line class="g" x1="39.34" y1="35.12" x2="102.16" y2="97.94" />
    <line class="g" x1="102.16" y1="35.12" x2="39.34" y2="97.94" />
  </g>
  <g>
    <g>
      <path
        class="b"
        d="M386.36,266.4h32.9c17.27,0,25.14,10.57,25.14,27.14,0,6.81-1.53,13.04-7.75,18.56,6.7,6.34,7.75,12.57,7.75,21.27,0,15.39-10.22,24.44-25.14,24.44h-32.9v-91.41Zm11.75,39.83h21.15c8.46,0,13.39-3.76,13.39-12.69,0-9.87-2.7-15.39-13.39-15.39h-21.15v28.08Zm0,39.83h21.15c8.46,0,13.39-3.76,13.39-12.69,0-9.87-2.7-15.39-13.39-15.39h-21.15v28.08Z"
      />
      <path
        class="b"
        d="M505.85,346.06h17.27c3.05,0,5.88,1.65,5.88,5.88s-2.82,5.87-5.88,5.87h-46.29c-3.05,0-5.87-1.65-5.87-5.87s2.82-5.88,5.87-5.88h17.27v-67.91h-17.27c-3.05,0-5.87-1.65-5.87-5.87s2.82-5.87,5.87-5.87h46.29c3.05,0,5.88,1.65,5.88,5.87s-2.82,5.87-5.88,5.87h-17.27v67.91Z"
      />
      <path
        class="b"
        d="M601.96,272.39c0-3.76,1.64-5.88,5.87-5.88s5.88,2.12,5.88,5.88v85.53h-15.51l-30.67-70.5v-.12h-.23v64.62c0,3.76-1.65,5.87-5.88,5.87s-5.88-2.11-5.88-5.87v-85.53h15.51l30.67,71.32h.12l.12-65.33Z"
      />
      <path
        class="b"
        d="M663.17,272.39c.94-3.17,2.23-5.99,5.99-5.99s5.29,2.94,6.11,5.99l22.68,79.54c.82,2.82-2.35,5.87-5.64,5.87-3.64,0-5.52-3.05-6.34-5.87l-4.35-14.1h-25.03l-4.46,14.1c-.82,2.82-2.7,5.87-6.34,5.87-3.29,0-6.46-3.05-5.64-5.87l23.03-79.54Zm6.11,21.85h-.24l-9.16,31.84h18.45l-9.05-31.84Z"
      />
      <path
        class="b"
        d="M736.48,351.94c0,3.76-1.65,5.87-5.88,5.87s-5.88-2.11-5.88-5.87v-85.53h39.48c9.28,0,18.56,6.58,18.56,17.04v8.11c0,11.04-9.17,16.68-18.56,16.68h-10.81l26.44,37.83c1.29,1.76,2.94,4,2.94,6.23,0,3.29-2.7,5.52-5.99,5.52-2.35,0-3.88-1.41-5.17-3.29l-32.43-46.29h-2.7v43.71Zm0-55.46h26.08c3.29,0,8.46-.23,8.46-4.94v-8.11c0-4.7-4.82-5.29-8.34-5.29h-26.2v18.33Z"
      />
      <path
        class="b"
        d="M844.22,351.94c0,3.76-1.64,5.87-5.87,5.87s-5.88-2.11-5.88-5.87v-37.6l-23.15-30.08v-11.98c0-3.76,1.65-5.87,5.88-5.87s5.88,2.11,5.88,5.87v7.99l17.27,22.44,17.27-22.44v-7.99c0-3.76,1.65-5.87,5.88-5.87s5.88,2.11,5.88,5.87v11.98l-23.15,30.08v37.6Z"
      />
      <path
        class="b"
        d="M398.11,453.45c0,3.76-1.65,5.87-5.87,5.87s-5.88-2.11-5.88-5.87v-85.53h39.01c5.4,0,9.28,.82,13.51,4.82,5.05,4.7,5.52,9.05,5.52,15.39v15.98c0,5.99-.47,10.22-4.82,15.04-4.58,5.17-9.4,5.64-15.74,5.64h-25.73v28.67Zm0-40.42h26.08c6.93,0,8.46-1.76,8.46-8.46v-16.45c0-6.7-1.53-8.46-8.46-8.46h-26.08v33.37Z"
      />
      <path
        class="b"
        d="M523.12,447.57c3.05,0,5.88,1.64,5.88,5.88s-2.82,5.87-5.88,5.87h-52.17v-85.53c0-3.76,1.64-5.87,5.87-5.87s5.87,2.11,5.87,5.87v73.79h40.42Z"
      />
      <path
        class="b"
        d="M607.71,447.57c3.05,0,5.88,1.64,5.88,5.88s-2.82,5.87-5.88,5.87h-52.17v-91.41h52.17c3.05,0,5.88,1.65,5.88,5.87s-2.82,5.87-5.88,5.87h-40.42v28.08h17.27c3.05,0,5.87,1.64,5.87,5.88s-2.82,5.87-5.87,5.87h-17.27v28.08h40.42Z"
      />
      <path
        class="b"
        d="M663.17,373.91c.94-3.17,2.23-5.99,5.99-5.99s5.29,2.94,6.11,5.99l22.68,79.54c.82,2.82-2.35,5.87-5.64,5.87-3.64,0-5.52-3.05-6.34-5.87l-4.35-14.1h-25.03l-4.46,14.1c-.82,2.82-2.7,5.87-6.34,5.87-3.29,0-6.46-3.05-5.64-5.87l23.03-79.54Zm6.11,21.85h-.24l-9.16,31.84h18.45l-9.05-31.84Z"
      />
      <path
        class="b"
        d="M778.66,436.29c2.35,3.05,4.11,5.76,4.11,9.75,0,8.81-6.7,13.28-14.8,13.28h-25.85c-4.46,0-8.34-.82-11.87-3.76-3.17-2.58-5.52-6.81-5.52-10.93,0-3.76,2.12-7.05,6.23-7.05,3.41,0,5.52,2.82,5.52,5.99,0,3.53,1.88,4,5.17,4h25.5c.94,0,3.88,.35,3.88-1.41,0-.94-1.64-2.7-2.11-3.41l-40.3-51.81c-2.47-3.17-3.88-5.52-3.88-9.63,0-4.7,2.23-8.69,6.23-11.28,3.29-2.11,5.99-2.11,9.75-2.11h24.91c4.46,0,8.22,.94,11.63,3.88,3.05,2.7,5.52,7.05,5.52,11.16,0,3.76-1.88,6.81-6.11,6.81-3.52,0-5.64-2.23-5.64-5.52,0-4-2-4.58-5.64-4.58h-24.91c-1.29,0-3.99-.35-3.99,1.65,0,1.06,1.29,2.47,1.76,3.17l40.42,51.81Z"
      />
      <path
        class="b"
        d="M861.49,447.57c3.05,0,5.88,1.64,5.88,5.88s-2.82,5.87-5.88,5.87h-52.17v-91.41h52.17c3.05,0,5.88,1.65,5.88,5.87s-2.82,5.87-5.88,5.87h-40.42v28.08h17.27c3.05,0,5.87,1.64,5.87,5.88s-2.82,5.87-5.87,5.87h-17.27v28.08h40.42Z"
      />
    </g>
    <circle class="e" cx="258.33" cy="379.84" r="90.45" />
    <circle class="f" cx="258.33" cy="349.75" r="90.45" />
    <circle class="d" cx="258.33" cy="319.66" r="90.45" />
    <path
      class="d"
      d="M292.55,343.9c-9.51,11.29-21.32,17.97-34.11,17.97s-24.79-6.79-34.34-18.24"
    />
    <g>
      <ellipse class="b t" cx="285.25" cy="298.17" rx="9.57" ry="25.56" />
      <ellipse class="b t" cx="231.4" cy="298.17" rx="9.57" ry="25.56" />
    </g>
  </g>
  <rect class="g" x="3.59" y="580.88" width="654.01" height="219.6" />
  <g>
    <path
      class="b"
      d="M60.76,638.12v-12.12c0-1.74,.78-3,3-3s3,1.26,3,3v15.12c0,2.16-1.44,3-3,3h-23.64c-1.56,0-3-.84-3-3s1.44-3,3-3h8.82v-34.68h-8.82c-1.56,0-3-.84-3-3s1.44-3,3-3h14.82v40.68h5.82Z"
    />
    <path
      class="b"
      d="M103.96,597.44c3.3,0,6,2.7,6,6v34.68c0,3.36-2.58,6-6,6h-17.64c-3.42,0-6-2.64-6-6v-34.68c0-3.3,2.7-6,6-6h17.64Zm0,40.68v-34.68h-17.64v34.68h17.64Z"
    />
    <path
      class="b"
      d="M147.16,597.44c3.3,0,6,2.7,6,6v34.68c0,3.36-2.58,6-6,6h-17.64c-3.42,0-6-2.64-6-6v-34.68c0-3.3,2.7-6,6-6h17.64Zm0,40.68v-34.68h-17.64v34.68h17.64Z"
    />
    <path
      class="b"
      d="M190.36,638.12v-12.12c0-1.74,.78-3,3-3s3,1.26,3,3v15.12c0,2.16-1.44,3-3,3h-23.64c-1.56,0-3-.84-3-3s1.44-3,3-3h8.82v-34.68h-8.82c-1.56,0-3-.84-3-3s1.44-3,3-3h14.82v40.68h5.82Z"
    />
    <path
      class="b"
      d="M233.56,597.44c3.3,0,6,2.7,6,6v34.68c0,3.36-2.58,6-6,6h-17.64c-3.42,0-6-2.64-6-6v-34.68c0-3.3,2.7-6,6-6h17.64Zm0,40.68v-34.68h-17.64v34.68h17.64Z"
    />
    <path
      class="b"
      d="M276.75,638.12v-12.12c0-1.74,.78-3,3-3s3,1.26,3,3v15.12c0,2.16-1.44,3-3,3h-23.64c-1.56,0-3-.84-3-3s1.44-3,3-3h8.82v-34.68h-8.82c-1.56,0-3-.84-3-3s1.44-3,3-3h14.82v40.68h5.82Z"
    />
    <path
      class="b"
      d="M319.95,597.44c3.3,0,6,2.7,6,6v34.68c0,3.36-2.58,6-6,6h-17.64c-3.42,0-6-2.64-6-6v-34.68c0-3.3,2.7-6,6-6h17.64Zm0,40.68v-34.68h-17.64v34.68h17.64Z"
    />
    <path
      class="b"
      d="M363.15,597.44c3.3,0,6,2.7,6,6v34.68c0,3.36-2.58,6-6,6h-17.64c-3.42,0-6-2.64-6-6v-34.68c0-3.3,2.7-6,6-6h17.64Zm0,40.68v-34.68h-17.64v34.68h17.64Z"
    />
    <path
      class="b"
      d="M406.35,638.12v-12.12c0-1.74,.78-3,3-3s3,1.26,3,3v15.12c0,2.16-1.44,3-3,3h-23.64c-1.56,0-3-.84-3-3s1.44-3,3-3h8.82v-34.68h-8.82c-1.56,0-3-.84-3-3s1.44-3,3-3h14.82v40.68h5.82Z"
    />
    <path
      class="b"
      d="M449.55,597.44c3.3,0,6,2.7,6,6v34.68c0,3.36-2.58,6-6,6h-17.64c-3.42,0-6-2.64-6-6v-34.68c0-3.3,2.7-6,6-6h17.64Zm0,40.68v-34.68h-17.64v34.68h17.64Z"
    />
    <path
      class="b"
      d="M492.75,638.12v-12.12c0-1.74,.78-3,3-3s3,1.26,3,3v15.12c0,2.16-1.44,3-3,3h-23.64c-1.56,0-3-.84-3-3s1.44-3,3-3h8.82v-34.68h-8.82c-1.56,0-3-.84-3-3s1.44-3,3-3h14.82v40.68h5.82Z"
    />
    <path
      class="b"
      d="M535.95,597.44c3.3,0,6,2.7,6,6v34.68c0,3.36-2.58,6-6,6h-17.64c-3.42,0-6-2.64-6-6v-34.68c0-3.3,2.7-6,6-6h17.64Zm0,40.68v-34.68h-17.64v34.68h17.64Z"
    />
    <path
      class="b"
      d="M579.15,638.12v-12.12c0-1.74,.78-3,3-3s3,1.26,3,3v15.12c0,2.16-1.44,3-3,3h-23.64c-1.56,0-3-.84-3-3s1.44-3,3-3h8.82v-34.68h-8.82c-1.56,0-3-.84-3-3s1.44-3,3-3h14.82v40.68h5.82Z"
    />
    <path
      class="b"
      d="M622.35,597.44c3.3,0,6,2.7,6,6v34.68c0,3.36-2.58,6-6,6h-17.64c-3.42,0-6-2.64-6-6v-34.68c0-3.3,2.7-6,6-6h17.64Zm0,40.68v-34.68h-17.64v34.68h17.64Z"
    />
    <path
      class="b"
      d="M60.76,706.31v-12.12c0-1.74,.78-3,3-3s3,1.26,3,3v15.12c0,2.16-1.44,3-3,3h-23.64c-1.56,0-3-.84-3-3s1.44-3,3-3h8.82v-34.68h-8.82c-1.56,0-3-.84-3-3s1.44-3,3-3h14.82v40.68h5.82Z"
    />
    <path
      class="b"
      d="M103.96,665.63c3.3,0,6,2.7,6,6v34.68c0,3.36-2.58,6-6,6h-17.64c-3.42,0-6-2.64-6-6v-34.68c0-3.3,2.7-6,6-6h17.64Zm0,40.68v-34.68h-17.64v34.68h17.64Z"
    />
    <path
      class="b"
      d="M147.16,706.31v-12.12c0-1.74,.78-3,3-3s3,1.26,3,3v15.12c0,2.16-1.44,3-3,3h-23.64c-1.56,0-3-.84-3-3s1.44-3,3-3h8.82v-34.68h-8.82c-1.56,0-3-.84-3-3s1.44-3,3-3h14.82v40.68h5.82Z"
    />
    <path
      class="b"
      d="M190.36,665.63c3.3,0,6,2.7,6,6v34.68c0,3.36-2.58,6-6,6h-17.64c-3.42,0-6-2.64-6-6v-34.68c0-3.3,2.7-6,6-6h17.64Zm0,40.68v-34.68h-17.64v34.68h17.64Z"
    />
    <path
      class="b"
      d="M233.56,706.31v-12.12c0-1.74,.78-3,3-3s3,1.26,3,3v15.12c0,2.16-1.44,3-3,3h-23.64c-1.56,0-3-.84-3-3s1.44-3,3-3h8.82v-34.68h-8.82c-1.56,0-3-.84-3-3s1.44-3,3-3h14.82v40.68h5.82Z"
    />
    <path
      class="b"
      d="M276.75,706.31v-12.12c0-1.74,.78-3,3-3s3,1.26,3,3v15.12c0,2.16-1.44,3-3,3h-23.64c-1.56,0-3-.84-3-3s1.44-3,3-3h8.82v-34.68h-8.82c-1.56,0-3-.84-3-3s1.44-3,3-3h14.82v40.68h5.82Z"
    />
    <path
      class="b"
      d="M319.95,706.31v-12.12c0-1.74,.78-3,3-3s3,1.26,3,3v15.12c0,2.16-1.44,3-3,3h-23.64c-1.56,0-3-.84-3-3s1.44-3,3-3h8.82v-34.68h-8.82c-1.56,0-3-.84-3-3s1.44-3,3-3h14.82v40.68h5.82Z"
    />
    <path
      class="b"
      d="M363.15,665.63c3.3,0,6,2.7,6,6v34.68c0,3.36-2.58,6-6,6h-17.64c-3.42,0-6-2.64-6-6v-34.68c0-3.3,2.7-6,6-6h17.64Zm0,40.68v-34.68h-17.64v34.68h17.64Z"
    />
    <path
      class="b"
      d="M406.35,706.31v-12.12c0-1.74,.78-3,3-3s3,1.26,3,3v15.12c0,2.16-1.44,3-3,3h-23.64c-1.56,0-3-.84-3-3s1.44-3,3-3h8.82v-34.68h-8.82c-1.56,0-3-.84-3-3s1.44-3,3-3h14.82v40.68h5.82Z"
    />
    <path
      class="b"
      d="M449.55,665.63c3.3,0,6,2.7,6,6v34.68c0,3.36-2.58,6-6,6h-17.64c-3.42,0-6-2.64-6-6v-34.68c0-3.3,2.7-6,6-6h17.64Zm0,40.68v-34.68h-17.64v34.68h17.64Z"
    />
    <path
      class="b"
      d="M492.75,706.31v-12.12c0-1.74,.78-3,3-3s3,1.26,3,3v15.12c0,2.16-1.44,3-3,3h-23.64c-1.56,0-3-.84-3-3s1.44-3,3-3h8.82v-34.68h-8.82c-1.56,0-3-.84-3-3s1.44-3,3-3h14.82v40.68h5.82Z"
    />
    <path
      class="b"
      d="M535.95,665.63c3.3,0,6,2.7,6,6v34.68c0,3.36-2.58,6-6,6h-17.64c-3.42,0-6-2.64-6-6v-34.68c0-3.3,2.7-6,6-6h17.64Zm0,40.68v-34.68h-17.64v34.68h17.64Z"
    />
    <path
      class="b"
      d="M579.15,665.63c3.3,0,6,2.7,6,6v34.68c0,3.36-2.58,6-6,6h-17.64c-3.42,0-6-2.64-6-6v-34.68c0-3.3,2.7-6,6-6h17.64Zm0,40.68v-34.68h-17.64v34.68h17.64Z"
    />
    <path
      class="b"
      d="M622.35,665.63c3.3,0,6,2.7,6,6v34.68c0,3.36-2.58,6-6,6h-17.64c-3.42,0-6-2.64-6-6v-34.68c0-3.3,2.7-6,6-6h17.64Zm0,40.68v-34.68h-17.64v34.68h17.64Z"
    />
    <path
      class="b"
      d="M60.76,774.51v-12.12c0-1.74,.78-3,3-3s3,1.26,3,3v15.12c0,2.16-1.44,3-3,3h-23.64c-1.56,0-3-.84-3-3s1.44-3,3-3h8.82v-34.68h-8.82c-1.56,0-3-.84-3-3s1.44-3,3-3h14.82v40.68h5.82Z"
    />
    <path
      class="b"
      d="M103.96,774.51v-12.12c0-1.74,.78-3,3-3s3,1.26,3,3v15.12c0,2.16-1.44,3-3,3h-23.64c-1.56,0-3-.84-3-3s1.44-3,3-3h8.82v-34.68h-8.82c-1.56,0-3-.84-3-3s1.44-3,3-3h14.82v40.68h5.82Z"
    />
    <path
      class="b"
      d="M147.16,774.51v-12.12c0-1.74,.78-3,3-3s3,1.26,3,3v15.12c0,2.16-1.44,3-3,3h-23.64c-1.56,0-3-.84-3-3s1.44-3,3-3h8.82v-34.68h-8.82c-1.56,0-3-.84-3-3s1.44-3,3-3h14.82v40.68h5.82Z"
    />
    <path
      class="b"
      d="M190.36,733.83c3.3,0,6,2.7,6,6v34.68c0,3.36-2.58,6-6,6h-17.64c-3.42,0-6-2.64-6-6v-34.68c0-3.3,2.7-6,6-6h17.64Zm0,40.68v-34.68h-17.64v34.68h17.64Z"
    />
    <path
      class="b"
      d="M233.56,774.51v-12.12c0-1.74,.78-3,3-3s3,1.26,3,3v15.12c0,2.16-1.44,3-3,3h-23.64c-1.56,0-3-.84-3-3s1.44-3,3-3h8.82v-34.68h-8.82c-1.56,0-3-.84-3-3s1.44-3,3-3h14.82v40.68h5.82Z"
    />
    <path
      class="b"
      d="M276.75,733.83c3.3,0,6,2.7,6,6v34.68c0,3.36-2.58,6-6,6h-17.64c-3.42,0-6-2.64-6-6v-34.68c0-3.3,2.7-6,6-6h17.64Zm0,40.68v-34.68h-17.64v34.68h17.64Z"
    />
    <path
      class="b"
      d="M319.95,774.51v-12.12c0-1.74,.78-3,3-3s3,1.26,3,3v15.12c0,2.16-1.44,3-3,3h-23.64c-1.56,0-3-.84-3-3s1.44-3,3-3h8.82v-34.68h-8.82c-1.56,0-3-.84-3-3s1.44-3,3-3h14.82v40.68h5.82Z"
    />
    <path
      class="b"
      d="M363.15,774.51v-12.12c0-1.74,.78-3,3-3s3,1.26,3,3v15.12c0,2.16-1.44,3-3,3h-23.64c-1.56,0-3-.84-3-3s1.44-3,3-3h8.82v-34.68h-8.82c-1.56,0-3-.84-3-3s1.44-3,3-3h14.82v40.68h5.82Z"
    />
    <path
      class="b"
      d="M406.35,774.51v-12.12c0-1.74,.78-3,3-3s3,1.26,3,3v15.12c0,2.16-1.44,3-3,3h-23.64c-1.56,0-3-.84-3-3s1.44-3,3-3h8.82v-34.68h-8.82c-1.56,0-3-.84-3-3s1.44-3,3-3h14.82v40.68h5.82Z"
    />
    <path
      class="b"
      d="M449.55,733.83c3.3,0,6,2.7,6,6v34.68c0,3.36-2.58,6-6,6h-17.64c-3.42,0-6-2.64-6-6v-34.68c0-3.3,2.7-6,6-6h17.64Zm0,40.68v-34.68h-17.64v34.68h17.64Z"
    />
    <path
      class="b"
      d="M492.75,774.51v-12.12c0-1.74,.78-3,3-3s3,1.26,3,3v15.12c0,2.16-1.44,3-3,3h-23.64c-1.56,0-3-.84-3-3s1.44-3,3-3h8.82v-34.68h-8.82c-1.56,0-3-.84-3-3s1.44-3,3-3h14.82v40.68h5.82Z"
    />
    <path
      class="b"
      d="M535.95,733.83c3.3,0,6,2.7,6,6v34.68c0,3.36-2.58,6-6,6h-17.64c-3.42,0-6-2.64-6-6v-34.68c0-3.3,2.7-6,6-6h17.64Zm0,40.68v-34.68h-17.64v34.68h17.64Z"
    />
    <path
      class="b"
      d="M579.15,774.51v-12.12c0-1.74,.78-3,3-3s3,1.26,3,3v15.12c0,2.16-1.44,3-3,3h-23.64c-1.56,0-3-.84-3-3s1.44-3,3-3h8.82v-34.68h-8.82c-1.56,0-3-.84-3-3s1.44-3,3-3h14.82v40.68h5.82Z"
    />
    <path
      class="b"
      d="M622.35,733.83c3.3,0,6,2.7,6,6v34.68c0,3.36-2.58,6-6,6h-17.64c-3.42,0-6-2.64-6-6v-34.68c0-3.3,2.7-6,6-6h17.64Zm0,40.68v-34.68h-17.64v34.68h17.64Z"
    />
  </g>
  <text class="c" transform="translate(744.66 737.93)">
    <tspan x="0" y="0">λ</tspan>
  </text>
  <rect class="g" x="657.6" y="580.88" width="384.09" height="219.6" />
  <path
    class="b"
    d="M933.07,655.07c11.27,0,20.44,9.17,20.44,20.44,0,10.26-6.16,21.38-18.3,33.04-10.03,9.63-21.86,17.44-29.59,22.41-7.73-4.97-19.56-12.78-29.59-22.41-12.14-11.66-18.3-22.78-18.3-33.04,0-11.27,9.17-20.44,20.44-20.44s20.44,9.17,20.44,20.44h14c0-11.27,9.17-20.44,20.44-20.44m0-7c-15.16,0-27.44,12.29-27.44,27.44,0-15.16-12.29-27.44-27.44-27.44s-27.44,12.29-27.44,27.44c0,30.02,40.97,54.76,54.88,63.77,13.91-9.02,54.88-33.76,54.88-63.77,0-15.16-12.29-27.44-27.44-27.44h0Z"
  />
  <g>
    <path
      class="b"
      d="M921.12,88.94c-3,0-5.34-.72-7.44-3.06-1.98-2.22-2.28-4.38-2.28-7.14V45.26c0-1.92,.84-3,3-3s3,1.08,3,3v33.48c0,3.36,1.02,4.2,3.72,4.2h10.2c2.7,0,3.72-.84,3.72-4.2V45.26c0-1.92,.84-3,3-3s3,1.08,3,3v33.48c0,2.76-.3,4.92-2.28,7.14-2.1,2.34-4.44,3.06-7.44,3.06h-10.2Z"
    />
    <path
      class="b"
      d="M972.42,73.7c-1.56,0-3-.84-3-3s1.44-3,3-3h11.82v11.82c0,5.82-3.9,9.42-9.6,9.42h-10.32c-2.76,0-4.8-.48-6.9-2.4-2.4-2.16-2.82-4.38-2.82-7.38v-15c0-3.84,.84-5.82,3.12-8.76l7.08-9.06c2.4-3.06,4.5-4.08,8.4-4.08h8.04c1.56,0,3,.84,3,3s-1.44,3-3,3h-7.2c-3.3,0-3.06-.06-5.04,2.46l-6.54,8.34c-1.86,2.34-1.86,4.86-1.86,7.8v11.76c0,3.3,.72,4.32,4.14,4.32h9.54c2.16,0,3.96-.48,3.96-3.12v-6.12h-5.82Z"
    />
  </g>
</svg>
