<?xml version="1.0" encoding="UTF-8"?><svg id="a" xmlns="http://www.w3.org/2000/svg" width="1045.19" height="803.97" viewBox="0 0 1045.19 803.97"><defs><style>.b,.c,.d,.e{fill:#9a63ff;}.c{font-size:117.49px;}.c,.e{font-family:OCRAStd, 'OCR A Std';}.f{fill:#fff;}.f,.g,.h,.i{stroke:#9a63ff;stroke-miterlimit:10;stroke-width:7px;}.g{fill:#999;}.h{fill:#d4d4d4;}.i{fill:none;}.d{font-family:FiraCode-Light, 'Fira Code';font-size:120px;font-variation-settings:'wght' 300;font-weight:300;}.e{font-size:60px;}</style></defs><rect class="i" x="3.5" y="3.5" width="1038.19" height="796.97"/><rect class="i" x="3.5" y="3.5" width="1038.19" height="126.07"/><g><line class="i" x1="39.34" y1="35.12" x2="102.16" y2="97.94"/><line class="i" x1="102.16" y1="35.12" x2="39.34" y2="97.94"/></g><g><text class="c" transform="translate(373.09 357.81)"><tspan x="0" y="0">BINARY </tspan><tspan x="0" y="101.51">PLEASE</tspan></text><circle class="g" cx="258.33" cy="379.84" r="90.45"/><circle class="h" cx="258.33" cy="349.75" r="90.45"/><circle class="f" cx="258.33" cy="319.66" r="90.45"/><path class="f" d="M292.55,343.9c-9.51,11.29-21.32,17.97-34.11,17.97s-24.79-6.79-34.34-18.24"/><g><ellipse class="b" cx="285.25" cy="298.17" rx="9.57" ry="25.56"/><ellipse class="b" cx="231.4" cy="298.17" rx="9.57" ry="25.56"/></g></g><rect class="i" x="3.59" y="580.88" width="654.01" height="219.6"/><text class="e" transform="translate(30.34 644.12)"><tspan x="0" y="0">10010100101010</tspan><tspan x="0" y="68.2">10101110101000</tspan><tspan x="0" y="136.4">11101011101010</tspan></text><text class="d" transform="translate(744.66 737.93)"><tspan x="0" y="0">λ</tspan></text><rect class="i" x="657.6" y="580.88" width="384.09" height="219.6"/><path class="b" d="M933.07,655.07c11.27,0,20.44,9.17,20.44,20.44,0,10.26-6.16,21.38-18.3,33.04-10.03,9.63-21.86,17.44-29.59,22.41-7.73-4.97-19.56-12.78-29.59-22.41-12.14-11.66-18.3-22.78-18.3-33.04,0-11.27,9.17-20.44,20.44-20.44s20.44,9.17,20.44,20.44h14c0-11.27,9.17-20.44,20.44-20.44m0-7c-15.16,0-27.44,12.29-27.44,27.44,0-15.16-12.29-27.44-27.44-27.44s-27.44,12.29-27.44,27.44c0,30.02,40.97,54.76,54.88,63.77,13.91-9.02,54.88-33.76,54.88-63.77,0-15.16-12.29-27.44-27.44-27.44h0Z"/><text class="e" transform="translate(904.62 88.94)"><tspan x="0" y="0">UG </tspan></text></svg>