<?xml version="1.0" encoding="utf-8"?>
<!-- Generator: Adobe Illustrator 26.0.0, SVG Export Plug-In . SVG Version: 6.00 Build 0)  -->
<svg version="1.1" id="Ebene_1" xmlns="http://www.w3.org/2000/svg" xmlns:xlink="http://www.w3.org/1999/xlink" x="0px" y="0px"
	 viewBox="0 0 713 227" style="enable-background:new 0 0 713 227;" xml:space="preserve">
<style type="text/css">
	.st0{fill-rule:evenodd;clip-rule:evenodd;fill:#EBE9E9;}
	.st1{fill:#0F084B;}
	.st2{fill-rule:evenodd;clip-rule:evenodd;fill:#0F084B;}
	.st3{fill-rule:evenodd;clip-rule:evenodd;fill:#7ED8D0;}
	.st4{fill-rule:evenodd;clip-rule:evenodd;fill:#0EB3BC;}
</style>
<g id="Hintergrund">
	<g id="Logo-Wortmarke-rechts-export">
		<path id="Rectangle-Copy" class="st0" d="M113.5,0h486C662.2,0,713,50.8,713,113.5l0,0c0,62.7-50.8,113.5-113.5,113.5h-486
			C50.8,227,0,176.2,0,113.5l0,0C0,50.8,50.8,0,113.5,0z"/>
	</g>
</g>
<g id="Text">
	<path id="HyHyve" class="st1" d="M401.3,142.2c3,0,5.3-2.5,5.3-5.5V90.6c0-3-2.3-5.5-5.3-5.5c-3.1,0-5.5,2.5-5.5,5.5v18.9h-24.5
		V90.6c0-3-2.4-5.5-5.4-5.5c-3.1,0-5.5,2.5-5.5,5.5v46.2c0,3,2.4,5.5,5.5,5.5c3,0,5.4-2.5,5.4-5.5v-18h24.5v18
		C395.8,139.7,398.2,142.2,401.3,142.2z M429.1,157.8c2,0,4-1.1,5.1-3.7l21-47.2c0.3-0.6,0.6-1.5,0.6-2.4c0-2.6-2.1-4.8-4.9-4.8
		c-2,0-3.9,1.1-5,3.7l-11.1,25.1l-10.9-25.1c-1.1-2.6-3.1-3.7-5.1-3.7c-2.8,0-4.9,2.2-4.9,4.8c0,1,0.3,1.8,0.6,2.4l15.1,33.2
		l-4.6,10.5c-0.2,0.6-0.6,1.5-0.6,2.4C424.4,155.6,426.3,157.8,429.1,157.8z M504,142.2c3,0,5.3-2.5,5.3-5.5V90.6
		c0-3-2.3-5.5-5.3-5.5c-3.1,0-5.5,2.5-5.5,5.5v18.9H474V90.6c0-3-2.4-5.5-5.4-5.5c-3.1,0-5.5,2.5-5.5,5.5v46.2c0,3,2.4,5.5,5.5,5.5
		c3,0,5.4-2.5,5.4-5.5v-18h24.5v18C498.5,139.7,501,142.2,504,142.2z M531.8,157.8c2,0,4-1.1,5.1-3.7l21-47.2
		c0.3-0.6,0.6-1.5,0.6-2.4c0-2.6-2.1-4.8-4.9-4.8c-2,0-3.9,1.1-5,3.7l-11.1,25.1l-10.9-25.1c-1.1-2.6-3.1-3.7-5.1-3.7
		c-2.8,0-4.9,2.2-4.9,4.8c0,1,0.3,1.8,0.6,2.4l15.1,33.2l-4.6,10.5c-0.2,0.6-0.6,1.5-0.6,2.4C527.1,155.6,529.1,157.8,531.8,157.8z
		 M583.6,142.2c2.5,0,4.1-1.5,5.3-4.1l14.3-31.3c0.3-0.6,0.6-1.5,0.6-2.4c0-2.6-2.1-4.8-4.9-4.8c-2,0-4,1.1-5,3.7l-10.3,24l-10.2-24
		c-1.1-2.6-3.1-3.7-5.1-3.7c-2.8,0-4.9,2.2-4.9,4.8c0,1,0.3,1.8,0.6,2.4l14.3,31.3C579.4,140.6,581.1,142.2,583.6,142.2z
		 M631.7,142.4c5.1,0,9.2-1.4,12.1-3.5c2-1.7,2.6-3.2,2.6-4.5c0-2-1.4-3.6-3.6-3.6c-1.4,0-2.5,0.6-4,1.3c-2.4,1.1-3.8,1.7-6.7,1.7
		c-5.9,0-10.6-3.2-11.6-9.1l24.1,0.2c4.3,0,6.6-1.5,6.6-5.7c0-12.6-11.2-19.8-20.4-19.8s-21.3,7-21.3,21.6
		C609.5,135.8,620.9,142.4,631.7,142.4z M640.8,117.5h-20.2c0.7-6.2,5.7-8.8,10.3-8.8C635.4,108.6,639.9,111.2,640.8,117.5z"/>
</g>
<g id="Bildmarke-Copy" transform="translate(37.000000, 23.500000)">
	
		<ellipse id="Oval-Copy-43_00000085229807233310752330000016486932832797651355_" class="st2" cx="195.8" cy="90.2" rx="89.1" ry="90"/>
	<ellipse id="Oval-Copy-44" class="st3" cx="90.9" cy="90.2" rx="89.1" ry="90"/>
	<path id="Combined-Shape" class="st4" d="M143.3,17.4C165.6,33.8,180,60.3,180,90.2c0,29.9-14.4,56.4-36.7,72.8
		c-22.2-16.4-36.7-42.9-36.7-72.8c0-29.8,14.4-56.3,36.5-72.6L143.3,17.4z"/>
</g>
</svg>
