<?xml version="1.0" encoding="utf-8"?>
<!-- Generator: Adobe Illustrator 27.0.0, SVG Export Plug-In . SVG Version: 6.00 Build 0)  -->
<svg version="1.1" id="Layer_1" xmlns="http://www.w3.org/2000/svg" xmlns:xlink="http://www.w3.org/1999/xlink" x="0px" y="0px"
	 viewBox="0 0 128 128" style="enable-background:new 0 0 128 128;" xml:space="preserve">
<g>
	<polygon points="90.9,93.2 80.9,83.9 37.1,83.9 47.1,93.2 	"/>
	<polygon points="47.1,60.5 37.1,69.9 80.9,69.9 90.9,60.5 	"/>
	<polygon points="90.9,46.5 80.9,37.1 37.1,37.1 47.1,46.5 	"/>
	<path d="M32.4,55.7l-6.6-6.6L1.4,73.6C0.5,74.5,0,75.6,0,76.9c0,1.2,0.5,2.4,1.4,3.3l24.5,24.5l6.6-6.6L11.3,76.9L32.4,55.7z"/>
	<path d="M126.6,50.2l-24.5-24.5l-6.6,6.6l21.2,21.2L95.6,74.7l6.6,6.6l24.5-24.5c0.9-0.9,1.4-2.1,1.4-3.3
		C128,52.2,127.5,51.1,126.6,50.2"/>
</g>
</svg>
